<?xml version="1.0" ?><!DOCTYPE svg  PUBLIC '-//W3C//DTD SVG 1.1//EN'  'http://www.w3.org/Graphics/SVG/1.1/DTD/svg11.dtd'><svg enable-background="new 0 0 64 64" id="Layer_1" version="1.1" viewBox="0 0 64 64" xml:space="preserve" xmlns="http://www.w3.org/2000/svg" xmlns:xlink="http://www.w3.org/1999/xlink"><g><path d="M54.7,32.9l-18,3.6c0.5-1.3,0.7-2.7,0.7-4c0-0.7-0.1-1.4-0.2-2.1h5.1c0.6,0,1-0.4,1-1s-0.4-1-1-1h-5.7   c-1.2-2.7-3.7-4.7-6.6-5.1v-4.4c0-0.6-0.4-1-1-1s-1,0.4-1,1v4.4c-2.9,0.4-5.3,2.4-6.6,5.1h-5.8c-0.6,0-1,0.4-1,1s0.4,1,1,1h5.1   c-0.1,0.7-0.2,1.4-0.2,2.1c0,1.3,0.3,2.7,0.7,4.1L3.2,32.9c-0.5-0.1-1.1,0.2-1.2,0.8c-0.1,0.5,0.2,1.1,0.8,1.2l7.5,1.5   c-0.5,0.6-0.7,1.3-0.7,2.1c0,1.9,1.5,3.4,3.4,3.4s3.4-1.5,3.4-3.4c0-0.3-0.1-0.6-0.1-0.9l6.1,1.2c1.5,2.5,3.9,4.3,6.6,4.3   c2.8,0,5.1-1.8,6.6-4.3l5.7-1.1c-0.1,0.3-0.1,0.6-0.1,0.9c0,1.9,1.5,3.4,3.4,3.4s3.4-1.5,3.4-3.4c0-0.8-0.3-1.5-0.7-2l7.8-1.6   c0.5-0.1,0.9-0.6,0.8-1.2C55.8,33.2,55.3,32.8,54.7,32.9z M13,39.9c-0.8,0-1.4-0.6-1.4-1.4s0.6-1.4,1.4-1.4s1.4,0.6,1.4,1.4   S13.7,39.9,13,39.9z M28.9,41.1c-3.6,0-6.5-4.7-6.5-8.6c0-4,2.9-7.2,6.5-7.2s6.5,3.2,6.5,7.2C35.4,36.4,32.5,41.1,28.9,41.1z    M44.6,39.9c-0.8,0-1.4-0.6-1.4-1.4s0.6-1.4,1.4-1.4s1.4,0.6,1.4,1.4S45.4,39.9,44.6,39.9z"/><path d="M28.9,27.7c-2.8,0-4.8,1.2-4.8,2.8c0,1.6,2,2.8,4.8,2.8s4.8-1.2,4.8-2.8C33.7,28.9,31.7,27.7,28.9,27.7z M28.9,31.3   c-1.7,0-2.7-0.6-2.8-0.8c0.1-0.2,1.1-0.8,2.8-0.8s2.7,0.6,2.8,0.8C31.6,30.7,30.7,31.3,28.9,31.3z"/></g></svg>